<svg width="155" height="103" viewBox="0 0 155 103" fill="none" xmlns="http://www.w3.org/2000/svg">
<g clip-path="url(#clip0_33_5354)">
<path d="M116.581 3.9794C115.41 4.6361 113.521 2.03861 113.092 3.30915C112.664 4.5797 113.701 9.70626 114.236 10.9358C114.502 11.5469 114.878 12.1059 115.14 12.7192C115.401 13.3324 115.54 14.0376 115.31 14.6628C114.908 15.751 113.583 16.1936 112.926 17.15C112.161 18.2639 112.47 19.7642 112.828 21.0667C113.136 22.1893 113.465 23.3222 114.058 24.3243C114.652 25.3264 115.547 26.1989 116.665 26.5305C118.088 26.9526 119.61 26.4509 120.982 25.8845C122.302 25.34 123.607 24.7227 124.729 23.8417C125.852 22.9608 126.788 21.7914 127.18 20.4213C127.672 18.7027 127.261 16.8219 126.409 15.2497C125.557 13.6775 124.297 12.3677 123.004 11.1311C120.826 9.04845 118.508 7.11141 116.071 5.33731L116.581 3.9794Z" fill="#2F2E41"/>
<path d="M133.997 92.1628L132.891 102.46L132.841 102.931L120.333 102.882L120.267 102.41L118.943 92.9742L133.997 92.1628Z" fill="#FFB6B6"/>
<path d="M114.873 102.389C114.873 102.545 114.871 102.702 114.87 102.86L101.885 102.81L101.843 102.338L101.042 93.3807L114.469 91.7563C114.469 91.7563 114.901 96.5071 114.873 102.389Z" fill="#FFB6B6"/>
<path d="M113.428 22.2205C115.49 24.8133 119.126 25.5647 122.061 24.0214C126.25 21.8184 131.969 19.2936 132.98 21.3111C134.608 24.5593 134.608 27.7116 134.608 27.7116L136.235 65.5679C136.235 65.5679 137.049 80.853 126.877 79.5038C116.706 78.1547 100.838 83.839 100.838 83.839L102.459 67.0684L106.787 60.7453L108.54 42.6046L105.517 28.0105L109.179 26.3864C109.179 26.3864 109.586 23.5442 110.806 23.5442C112.027 23.5442 112.322 20.8139 113.395 22.1791C113.405 22.1927 113.416 22.2066 113.428 22.2205Z" fill="#FADA5E"/>
<path d="M135.494 102.942L132.841 102.931L120.333 102.882L118.705 102.876L118.611 102.404L116.095 89.7269L115.702 102.393L115.687 102.863L114.87 102.86L101.885 102.81L100.954 102.805L100.951 102.335L100.896 93.3823L100.846 85.0923L100.838 83.8383L100.839 83.8367L104.727 75.9721L105.861 73.6775L106.094 73.2066L108.365 68.6128L128.914 65.7736L129.228 65.7297L134.812 64.959L134.852 67.2426L134.876 68.539L134.959 73.2066L134.969 73.6775L134.978 74.2158L135.485 102.47L135.494 102.942Z" fill="#2F2E41"/>
<path d="M119.507 21.0163C124.199 21.0163 128.004 17.2199 128.004 12.5368C128.004 7.85374 124.199 4.05734 119.507 4.05734C114.814 4.05734 111.01 7.85374 111.01 12.5368C111.01 17.2199 114.814 21.0163 119.507 21.0163Z" fill="#FFB6B6"/>
<path d="M129.085 25.8169C127.102 28.6401 126.088 32.1283 126.249 35.5724C124 34.4854 122.483 32.1888 121.966 29.7493C121.45 27.3098 121.844 24.7483 122.674 22.3966C122.682 22.3731 122.69 22.3496 122.699 22.3261C123.959 18.7961 122.788 14.8509 119.744 12.6565C117.691 11.1764 115.91 9.3195 114.543 7.19097C113.772 5.98932 113.116 4.48193 113.692 3.17581C114.224 1.97226 115.596 1.40975 116.858 1.03336C119.742 0.173904 122.805 -0.315137 125.764 0.228701C128.724 0.772538 131.573 2.47088 132.971 5.12972C134.37 7.78855 134.003 11.4172 131.733 13.3883C132.449 13.6193 132.956 14.3766 132.895 15.1251C132.834 15.8736 132.212 16.5396 131.468 16.6525C131.953 16.6354 132.24 17.2733 132.067 17.7262C131.894 18.179 131.447 18.4603 131.022 18.6934C130.415 19.0254 129.743 19.3726 129.74 20.2421C129.739 20.5907 129.864 20.9291 130.067 21.2124C130.56 21.8991 131.357 22.2083 132.123 22.4986C130.502 22.9752 129.209 24.4214 128.919 26.0831L129.085 25.8169Z" fill="#2F2E41"/>
<path d="M92.8526 22.5366C92.6208 20.1088 93.688 18.0215 95.2363 17.8745C96.7845 17.7275 98.2271 19.5763 98.4587 22.0049C98.5646 22.9738 98.4364 23.9539 98.0849 24.8632L98.9372 35.162L94.0858 35.4581L93.7607 25.2739C93.2433 24.4469 92.9319 23.5083 92.8526 22.5366Z" fill="#FFB6B6"/>
<path d="M119.284 27.4222C119.284 27.4222 111.358 22.7695 109.726 23.4674C108.094 24.1653 100.169 36.0297 100.169 36.0297L99.4398 33.8646L93.8744 34.4013C93.8744 34.4013 90.6108 49.5227 97.8374 48.1268C105.064 46.731 116.953 33.7034 116.953 33.7034L119.284 27.4222Z" fill="#FADA5E"/>
<path d="M45.7494 52.4216C45.7494 52.4216 50.2246 49.8033 51.4297 52.2311C52.6349 54.6589 63.7688 83.6212 63.7688 83.6212L56.5942 85.0153L45.7494 52.4216Z" fill="#FADA5E"/>
<path d="M35.9886 35.1202L36.1996 35.4199C35.4131 35.873 35.2971 37.0161 35.6659 37.8455C36.0347 38.675 36.7485 39.2897 37.366 39.9561C37.9834 40.6224 38.5464 41.4477 38.4891 42.3538C38.4248 43.3729 37.5923 44.2121 37.4763 45.2269C37.3087 46.7046 38.6874 48.0011 38.619 49.4871C38.5673 50.6218 37.6929 51.5336 36.8254 52.2696C36.1465 52.8467 35.4075 53.4267 34.9493 54.1711C34.8236 54.376 34.7188 54.5949 34.642 54.8291C34.2998 55.8857 34.6224 57.0372 35.0569 58.059C35.4899 59.0809 36.0417 60.079 36.1772 61.1803C36.3113 62.2816 35.895 63.5529 34.8795 64.0046C36.9022 63.8317 38.876 63.1278 40.5509 61.9832C40.7018 61.8801 40.8485 61.7741 40.9937 61.6654C43.3685 59.881 45.0364 57.3035 46.6415 54.7914C46.7742 54.5851 46.9055 54.3774 47.0382 54.1711C47.3944 53.6121 47.752 53.0545 48.1096 52.4954C49.1293 50.8979 50.1617 49.2766 50.7176 47.4671C51.2289 45.7985 51.3155 44.035 51.5251 42.3022C51.627 41.4533 51.7611 40.6071 51.7863 39.7525C51.8268 38.438 51.6019 37.1178 51.1437 35.8841C50.6953 34.6713 50.022 33.5407 49.1545 32.5788C48.2661 31.5932 47.1793 30.7917 45.9835 30.2145C44.8255 29.6555 43.5655 29.3084 42.2817 29.2122C41.8515 29.1802 41.4226 29.1746 40.9937 29.1941C39.3021 29.2638 37.63 29.6904 36.004 30.2145C34.8082 30.7917 33.7214 31.5933 32.833 32.5788C31.9655 33.5407 31.2922 34.6713 30.8438 35.8841C32.4028 35.0532 34.2551 34.7675 35.9886 35.1202Z" fill="#2F2E41"/>
<path d="M48.1121 50.3707L40.0912 47.2318L39.8881 50.3707L32.8568 51.4694L29.5541 66.3794L32.5422 75.6393L54.8747 76.2671L54.0884 73.1281C54.0884 73.1281 57.7056 69.0475 55.5038 62.4557L55.2593 60.7781C54.62 56.3918 51.9806 52.5485 48.1121 50.3707Z" fill="#FADA5E"/>
<path d="M43.6479 47.0908C47.5825 47.0908 50.7722 43.9077 50.7722 39.9812C50.7722 36.0547 47.5825 32.8716 43.6479 32.8716C39.7133 32.8716 36.5237 36.0547 36.5237 39.9812C36.5237 43.9077 39.7133 47.0908 43.6479 47.0908Z" fill="#A0616A"/>
<path d="M30.2012 39.7526C30.2264 40.6071 30.3605 41.4533 30.4625 42.3022C30.672 44.035 30.7586 45.7985 31.2699 47.4671C31.8259 49.2766 32.8582 50.8979 33.8779 52.4954C34.2355 53.0545 34.5931 53.6121 34.9493 54.1711C35.082 54.3774 35.2134 54.5851 35.3461 54.7914C36.9511 57.3035 38.619 59.881 40.9938 61.6654C41.139 61.7741 41.2857 61.8801 41.4366 61.9833C43.1115 63.1278 45.0853 63.8317 47.108 64.0046C46.0925 63.5529 45.6762 62.2816 45.8103 61.1803C45.9458 60.079 46.4976 59.0809 46.9306 58.059C47.3651 57.0372 47.6878 55.8857 47.3455 54.8291C47.2687 54.5949 47.1639 54.376 47.0382 54.1711C46.58 53.4267 45.841 52.8467 45.1622 52.2696C44.2947 51.5336 43.4202 50.6219 43.3685 49.4871C43.3001 48.0011 42.3488 48.4987 42.1811 47.0211C42.0652 46.0062 40.7088 44.2762 40.6445 43.2572C40.5873 42.351 41.1446 40.1596 41.7621 39.4933C42.3795 38.8269 41.8124 36.8376 42.1811 36.0082C42.5499 35.1787 46.5744 35.873 45.788 35.4199L45.9989 35.1202C47.7325 34.7675 49.5848 35.0532 51.1437 35.8841C51.4832 36.0639 51.8072 36.2689 52.1146 36.5003C52.8563 35.148 51.9763 33.432 50.7791 32.4576C49.6071 31.5012 48.1627 30.9492 46.7295 30.4627C46.4822 30.3791 46.2336 30.2954 45.9835 30.2145C44.3575 29.6904 42.6854 29.2638 40.9938 29.1941C40.5649 29.1746 40.1361 29.1802 39.7058 29.2122C38.4221 29.3084 37.162 29.6555 36.004 30.2145C34.8082 30.7917 33.7215 31.5933 32.833 32.5788C31.9655 33.5407 31.2922 34.6713 30.8438 35.8841C30.3856 37.1178 30.1607 38.438 30.2012 39.7526Z" fill="#2F2E41"/>
<path d="M154.56 96.5871L144.63 75.7649C143.889 74.2111 142.296 73.2066 140.571 73.2066H15.144C14.6674 73.2066 14.2035 73.2804 13.7663 73.4217C12.6607 73.7748 11.7202 74.547 11.1635 75.6079L0.519348 95.8573C-0.216669 97.2557 -0.167906 98.9005 0.649895 100.253C1.46612 101.608 2.89888 102.421 4.48261 102.427L100.954 102.805L101.885 102.81L114.87 102.86L115.687 102.863L118.705 102.876L120.333 102.882L132.841 102.931L135.494 102.942L150.484 103H150.502C152.05 103 153.467 102.222 154.297 100.917C155.131 99.6068 155.228 97.9871 154.56 96.5871Z" fill="white"/>
<path d="M154.56 96.5871L144.63 75.7649C143.889 74.2111 142.296 73.2066 140.571 73.2066H15.144C14.6674 73.2066 14.2035 73.2804 13.7663 73.4217C12.6607 73.7748 11.7202 74.547 11.1635 75.6079L0.519348 95.8573C-0.216669 97.2557 -0.167906 98.9005 0.649895 100.253C1.46612 101.608 2.89888 102.421 4.48261 102.427L100.954 102.805L101.885 102.81L114.87 102.86L115.687 102.863L118.705 102.876L120.333 102.882L132.841 102.931L135.494 102.942L150.484 103H150.502C152.05 103 153.467 102.222 154.297 100.917C155.131 99.6068 155.228 97.9871 154.56 96.5871ZM153.9 100.665C153.156 101.834 151.888 102.529 150.502 102.529H150.485L135.485 102.47L132.891 102.46L120.267 102.41L118.611 102.404L115.702 102.393L114.873 102.389L101.843 102.338L100.951 102.335L4.48414 101.956C3.06717 101.95 1.78381 101.223 1.05409 100.012C0.322758 98.8001 0.278756 97.3279 0.937712 96.0755L11.5818 75.8277C11.9655 75.0979 12.5506 74.5203 13.2505 74.1483C13.8213 73.8438 14.4693 73.6775 15.144 73.6775H140.571C142.115 73.6775 143.54 74.5768 144.204 75.9673L154.134 96.788C154.733 98.0436 154.645 99.4922 153.9 100.665Z" fill="#3F3D56"/>
<path d="M44.5735 88.2736L68.3214 79.6415L56.4474 74.8756L32.7781 81.054L44.5735 88.2736Z" fill="#F2F2F2"/>
<path d="M80.7458 75.2469L78.0722 83.7221L109.369 85.6055L106.696 76.0317L80.7458 75.2469Z" fill="#F2F2F2"/>
<path d="M43.8543 76.6967C46.0548 76.9144 47.7259 78.224 47.5868 79.6215C47.4477 81.019 45.5513 81.9749 43.3501 81.7568C42.4696 81.6817 41.6199 81.3973 40.8721 80.9273L31.5604 79.8871L32.1426 75.5368L41.2606 77.0241C42.0866 76.7098 42.976 76.5975 43.8543 76.6967Z" fill="#A0616A"/>
<path d="M34.5081 52.3326L32.8568 51.4694C32.8568 51.4694 30.2618 51.5478 28.5318 53.2743C26.8018 55.0007 12.8047 74.7761 12.8047 74.7761C12.8047 74.7761 9.34476 80.1123 17.9947 80.8971C26.6446 81.6818 36.2381 81.6818 36.2381 81.6818L37.0245 75.2469L23.971 73.8344L33.1119 61.7494L34.5081 52.3326Z" fill="#FADA5E"/>
<path d="M83.5814 50.242C81.9945 50.7113 80.318 50.9765 78.5865 51.0017C78.4842 51.0048 78.382 51.0064 78.2798 51.0064C76.7134 51.0064 75.1925 50.8133 73.7378 50.4492L73.7755 50.0772L74.6217 41.9332L74.6751 41.4122L73.8904 39.0627H83.5185L83.3644 41.3588L83.3077 42.1953L83.3911 42.4606L85.5143 49.2125L85.6086 49.5138C84.9512 49.7947 84.2749 50.038 83.5814 50.242Z" fill="#FADA5E"/>
<path d="M73.7378 50.4492C71.4526 49.8795 69.3326 48.8876 67.4658 47.5645C66.6968 47.1486 65.9497 46.6982 65.2341 46.2211L65.588 46.0437L74.4785 41.6068L74.6216 41.9332L78.4496 50.6909L78.5864 51.0017C78.4842 51.0048 78.382 51.0064 78.2798 51.0064C76.7133 51.0064 75.1925 50.8134 73.7378 50.4492Z" fill="#2F2E41"/>
<path d="M93.1073 43.713C93.0679 43.7664 93.027 43.8182 92.9862 43.87C92.3225 44.7112 91.5864 45.4928 90.7907 46.2069L90.7844 45.7879L90.7623 44.2451C90.7623 44.2451 91.3977 43.7821 92.1825 43.6612C92.3697 43.6314 92.5662 43.622 92.7644 43.644C92.8792 43.6549 92.9924 43.6769 93.1073 43.713Z" fill="#2F2E41"/>
<path d="M90.7907 46.2069C89.2683 47.5771 87.5194 48.7008 85.6086 49.5138C84.9512 49.7948 84.2749 50.038 83.5814 50.242L83.5735 49.9171L83.3911 42.4606L83.3643 41.3588L92.1825 43.6612L92.6512 43.7837L92.9862 43.87C92.3225 44.7112 91.5864 45.4928 90.7907 46.2069Z" fill="#2F2E41"/>
<path d="M78.7951 36.5166C82.6959 36.5166 85.8581 33.3609 85.8581 29.4681C85.8581 25.5753 82.6959 22.4196 78.7951 22.4196C74.8943 22.4196 71.7321 25.5753 71.7321 29.4681C71.7321 33.3609 74.8943 36.5166 78.7951 36.5166Z" fill="#A0616A"/>
<path d="M83.5742 49.9172C81.948 50.4069 80.229 50.6753 78.4503 50.6909L78.5871 51.0017C80.3187 50.9766 81.9951 50.7113 83.582 50.2421L83.5742 49.9172ZM65.5887 46.0437C61.9636 42.7007 59.6627 37.9484 59.5699 32.6687C55.8693 36.9439 59.5463 42.4308 65.2348 46.2211C65.9504 46.6982 66.6974 47.1486 67.4665 47.5645C66.8075 47.0984 66.18 46.5899 65.5887 46.0437ZM92.9255 20.714C89.4939 16.4136 84.2048 13.6529 78.2804 13.6529C67.9619 13.6529 59.5652 22.0307 59.5652 32.3296C59.5652 32.4427 59.5667 32.5556 59.5699 32.6687C59.6674 32.5541 59.7712 32.4411 59.8797 32.3296C65.0697 26.9934 68.1349 13.9668 78.2804 13.9668C84.2111 13.9668 89.4954 16.7808 92.8626 21.1424C95.2562 24.2406 96.6811 28.1219 96.6811 32.3296C96.6811 32.9402 96.6512 33.5444 96.5915 34.1392C96.5537 34.5348 96.5018 34.9271 96.4374 35.3148C95.9687 38.1634 94.8411 40.7954 93.2164 43.0445C93.0702 43.2485 92.9192 43.4478 92.7651 43.644C92.7273 43.6911 92.6911 43.7382 92.6518 43.7837C92.0794 44.4978 91.455 45.168 90.785 45.7879C89.2485 47.213 87.4682 48.3775 85.5149 49.2125C84.8858 49.484 84.2378 49.7194 83.5742 49.9172C81.948 50.4069 80.229 50.6753 78.4503 50.6909C78.3937 50.6925 78.337 50.6925 78.2804 50.6925C76.8555 50.6925 75.3284 50.4744 73.7762 50.0773C71.6562 49.5358 69.4874 48.6632 67.4665 47.5645C69.3333 48.8876 71.4533 49.8795 73.7384 50.4492C75.1932 50.8134 76.714 51.0064 78.2804 51.0064C78.3826 51.0064 78.4849 51.0048 78.5871 51.0017C80.3187 50.9766 81.9951 50.7113 83.582 50.2421C84.2756 50.038 84.9518 49.7948 85.6092 49.5138C87.5201 48.7008 89.2689 47.5771 90.7913 46.2069C91.5871 45.4928 92.3231 44.7112 92.9868 43.87C93.0277 43.8182 93.0686 43.7664 93.1079 43.713C93.1614 43.644 93.2149 43.5734 93.2667 43.5027C95.0455 41.1375 96.2722 38.3376 96.7598 35.2944C96.8227 34.9036 96.873 34.5081 96.9107 34.1079C96.9674 33.5224 96.9957 32.9292 96.9957 32.3296C96.9957 27.943 95.4733 23.9047 92.9255 20.714Z" fill="#E6E6E6"/>
<path d="M72.4693 33.2178C71.1983 32.0213 70.312 30.4353 71.1989 27.0543C71.2649 26.8026 71.0879 26.5324 70.9171 26.3359C70.7462 26.1394 70.4239 26.0481 70.2211 26.2116C70.3655 25.7871 72.3447 24.271 72.4891 23.8466C72.3204 24.0699 71.0335 24.5487 70.9304 24.2886C70.8272 24.0286 70.9177 23.7365 71.0083 23.4718L71.5485 21.8944C71.6844 21.4976 72.2203 21.9717 72.4891 21.6493C72.9705 21.0719 72.4211 20.4632 73.1561 20.3013C75.5618 19.7714 78.1121 19.298 80.4492 20.0757C81.47 20.4154 82.3984 20.9798 83.3168 21.5395L84.9973 22.5637C85.9614 23.1512 87.0085 23.8482 87.2725 24.9442L85.508 24.3148C85.901 25.15 86.2976 25.9956 86.4773 26.9007C86.6571 27.8058 86.1709 31.2139 85.6998 32.0079C85.286 32.7054 84.9931 30.832 84.857 31.6312C85.0128 30.0613 84.3047 28.4329 83.0493 27.4741C82.7918 27.2775 82.4982 27.0884 82.3837 26.7857C82.256 26.4481 82.3841 26.0421 82.2097 25.726C81.9929 25.333 81.4267 25.2955 81.0045 25.4498C80.5823 25.604 80.2133 25.894 79.7759 25.9979C78.6164 26.2734 77.5617 25.1793 76.3726 25.0971C75.2399 25.0187 74.2267 25.9036 73.7557 26.9346C73.2847 27.9656 71.9818 27.7424 71.86 28.8689C71.7382 29.9955 73.5169 32.2249 72.8036 33.1065L72.4693 33.2178Z" fill="#2F2E41"/>
<path d="M71.5775 43.7272L71.0507 43.3176L70.928 43.2234C70.8101 43.1308 70.6544 43.0994 70.5081 43.1355L69.8916 43.2893C69.8271 43.305 69.7579 43.2862 69.7107 43.2391L69.0187 42.5485C68.9715 42.5014 68.9527 42.4324 68.9684 42.368L69.1225 41.7528C69.1603 41.6068 69.1273 41.453 69.0345 41.3337L68.5296 40.6855C68.517 40.6698 68.5029 40.6541 68.4887 40.64C68.2968 40.4485 67.9871 40.4485 67.7952 40.64L67.5042 40.9304C67.295 41.1375 67.2039 41.4499 67.3061 41.7387C67.5671 42.4794 67.9917 43.1528 68.5501 43.7068C68.7482 43.9045 68.9606 44.0866 69.1854 44.2498C69.5943 44.5449 70.0441 44.7803 70.5222 44.9482C70.8132 45.0502 71.1246 44.9592 71.3322 44.7521L71.6231 44.4601C71.8323 44.253 71.8103 43.9092 71.5775 43.7272ZM71.4109 44.2498L71.1199 44.5402C70.983 44.6751 70.7912 44.7254 70.6213 44.6657C70.2203 44.526 69.8413 44.3346 69.4905 44.096C69.2295 43.9218 68.9857 43.7193 68.7624 43.4949C68.2371 42.9723 67.836 42.3382 67.5891 41.6398C67.5294 41.4703 67.5797 41.2788 67.715 41.1423L68.0075 40.8519C68.0122 40.8456 68.0185 40.8409 68.0248 40.8362C68.1082 40.7719 68.2276 40.786 68.2922 40.8692L68.797 41.5174C68.8332 41.5629 68.8458 41.6241 68.8316 41.6806L68.6775 42.2958C68.635 42.4622 68.6853 42.6395 68.8064 42.7604L69.4984 43.451C69.6195 43.5734 69.7972 43.622 69.9639 43.5797L70.5804 43.4258C70.6371 43.4117 70.6984 43.4243 70.744 43.4604L70.7519 43.4667L71.3935 43.9642C71.3998 43.9689 71.4061 43.9752 71.4109 43.9799C71.4863 44.0552 71.4863 44.1745 71.4109 44.2498Z" fill="#CCCCCC"/>
<path d="M77.717 42.3087C77.7947 42.3087 77.8577 42.3715 77.8577 42.4491V42.73C77.8577 43.3504 78.3617 43.8534 78.9834 43.8534C79.6052 43.8534 80.1092 43.3504 80.1092 42.73V42.4491C80.1092 42.3715 80.1722 42.3087 80.2499 42.3087C80.3277 42.3087 80.3907 42.3715 80.3907 42.4491V42.73C80.3907 43.4512 79.8432 44.0551 79.1242 44.1273V44.696H79.9685C80.0462 44.696 80.1092 44.7589 80.1092 44.8365C80.1092 44.914 80.0462 44.9769 79.9685 44.9769H77.9984C77.9207 44.9769 77.8577 44.914 77.8577 44.8365C77.8577 44.7589 77.9207 44.696 77.9984 44.696H78.8427V44.1273C78.1237 44.0552 77.5762 43.4512 77.5762 42.73V42.4491C77.5762 42.3715 77.6392 42.3087 77.717 42.3087Z" fill="#CCCCCC"/>
<path d="M78.9834 40.4831C78.5179 40.4831 78.1389 40.8597 78.1389 41.3259V42.7306C78.1389 43.1951 78.5179 43.5718 78.9834 43.5718C79.4505 43.5718 79.8279 43.1951 79.8279 42.7306V41.3259C79.8279 40.8597 79.4505 40.4831 78.9834 40.4831ZM79.5465 42.7306C79.5465 43.0398 79.2948 43.2924 78.9834 43.2924C78.672 43.2924 78.4204 43.0398 78.4204 42.7306V41.3259C78.4204 41.0151 78.672 40.764 78.9834 40.764C79.2948 40.764 79.5465 41.0151 79.5465 41.3259V42.7306Z" fill="#CCCCCC"/>
<path d="M88.7232 40.538C88.2812 40.3889 87.8015 40.6243 87.6521 41.0653L87.8896 41.3023C87.9054 41.0041 88.1539 40.7703 88.4542 40.7719C88.7641 40.7734 89.0157 41.0261 89.0141 41.3353V42.4245L89.2956 42.7054V41.3353C89.2956 40.9759 89.0645 40.6541 88.7232 40.538ZM89.4372 44.7065H88.5927V44.1368C88.8395 44.1133 89.0754 44.0238 89.2768 43.8779L89.0739 43.6754C88.8962 43.7947 88.6823 43.8637 88.4511 43.8637C87.8299 43.8637 87.325 43.3599 87.325 42.74V42.459C87.325 42.4339 87.3187 42.4088 87.3046 42.3884C87.281 42.3476 87.237 42.3194 87.185 42.3194C87.1599 42.3194 87.1363 42.3256 87.1159 42.3382C87.0734 42.3617 87.0435 42.4073 87.0435 42.459V42.74C87.0435 43.4604 87.5924 44.0646 88.3111 44.1368V44.7065H87.4666C87.3879 44.7065 87.325 44.7693 87.325 44.8462C87.325 44.9247 87.3879 44.9875 87.4666 44.9875H89.4372C89.5142 44.9875 89.5771 44.9247 89.5771 44.8462C89.5771 44.7693 89.5142 44.7065 89.4372 44.7065ZM89.7187 42.3194C89.6401 42.3194 89.5771 42.3821 89.5771 42.459V42.74C89.5771 42.8153 89.5693 42.8906 89.5551 42.9644L89.5693 42.9785L89.7832 43.1936C89.7989 43.1449 89.813 43.0962 89.8241 43.046C89.8477 42.9472 89.8587 42.8451 89.8587 42.74V42.459C89.8587 42.3821 89.7958 42.3194 89.7187 42.3194Z" fill="#CCCCCC"/>
<path d="M89.0314 42.8389L86.8627 40.6745L86.663 40.8739L88.4904 42.6976L90.0411 44.2435L90.2393 44.0442L89.0314 42.8389ZM88.6587 43.2626C88.3709 43.3772 88.0438 43.2359 87.929 42.9472C87.9022 42.8812 87.8881 42.8106 87.8881 42.74V42.4936L87.6066 42.2126V42.74C87.6066 43.2045 87.9856 43.5828 88.4511 43.5828C88.5974 43.5828 88.742 43.5451 88.8694 43.4729L88.6587 43.2626Z" fill="#CCCCCC"/>
<path d="M126.595 73.5172C124.728 74.9007 122.499 75.0608 121.617 73.875C120.735 72.6891 121.533 70.6067 123.401 69.2229C124.14 68.66 125.003 68.2817 125.918 68.1197L133.902 62.3574L136.532 66.1543L128.381 71.4318C127.961 72.2594 127.349 72.9744 126.595 73.5172Z" fill="#FFB6B6"/>
<path d="M131.625 26.5894C131.625 26.5894 138.066 26.7924 139.287 31.2587C140.507 35.725 142.948 45.2447 142.541 58.4624C142.541 58.4624 144.576 66.989 139.287 66.5829L131.963 69.8311L127.081 63.3347L131.149 58.4624L131.625 26.5894Z" fill="#FADA5E"/>
</g>
<defs>
<clipPath id="clip0_33_5354">
<rect width="155" height="103" fill="white"/>
</clipPath>
</defs>
</svg>
