<svg width="268" height="110" viewBox="0 0 268 110" fill="none" xmlns="http://www.w3.org/2000/svg">
<g clip-path="url(#clip0_33_5397)">
<path d="M162.993 56.1002L178.681 40.4776L162.993 24.8551L167.776 20.0934L188.247 40.4776L167.776 60.8618L162.993 56.1002Z" fill="#E6E6E6"/>
<path d="M124.57 34.2102H118.192V40.5803H124.57V34.2102Z" fill="#E6E6E6"/>
<path d="M150.206 34.2102H143.829V40.5803H150.206V34.2102Z" fill="#E6E6E6"/>
<path d="M137.388 34.2102H131.011V40.5803H137.388V34.2102Z" fill="#E6E6E6"/>
<path d="M109.551 55.9411L93.8471 40.3185L109.535 24.6959L104.752 19.9343L84.2971 40.3185L104.768 60.7027L109.551 55.9411Z" fill="#E6E6E6"/>
<path d="M162.993 53.0746L178.681 37.452L162.993 21.8292L167.776 17.0676L188.247 37.452L167.776 57.8362L162.993 53.0746Z" fill="#FADA5E"/>
<path d="M118.192 38.5666H124.57V32.1965H118.192L118.192 38.5666ZM150.206 32.1965H143.829V38.5666H150.206V32.1965ZM131.011 38.5666H137.388V32.1965H131.011V38.5666Z" fill="#FADA5E"/>
<path d="M109.551 52.9152L93.8471 37.2926L109.535 21.67L104.752 16.9084L84.2971 37.2926L104.768 57.6768L109.551 52.9152Z" fill="#FADA5E"/>
<path d="M32.754 103.852L36.3242 104.715L41.3521 91.3704L36.083 90.098L32.754 103.852Z" fill="#A0616A"/>
<path d="M31.0637 107.055L32.16 102.525L39.1448 104.212C40.3203 104.497 41.3345 105.236 41.9649 106.268C42.5953 107.299 42.7905 108.538 42.5075 109.712L42.4834 109.812L31.0637 107.055Z" fill="#2F2E41"/>
<path d="M48.5581 106.282L52.2311 106.281L53.9782 92.1307L48.5576 92.131L48.5581 106.282Z" fill="#A0616A"/>
<path d="M47.6683 105.131L54.8544 105.131C56.0644 105.131 57.2251 105.611 58.0808 106.465C58.9364 107.32 59.4172 108.479 59.4172 109.688V109.79L47.6686 109.791L47.6683 105.131Z" fill="#2F2E41"/>
<path d="M47.6963 101.385L48.3001 79.3704L47.4867 70.4435L45.8996 77.3133L38.9641 99.9044L32.9852 98.3327L39.9096 73.9743L38.4057 58.3507L42.7266 55.5762L42.7849 55.5867L57.5473 58.3048L53.9812 100.757L47.6963 101.385Z" fill="#2F2E41"/>
<path d="M53.5388 61.3697C52.35 61.3697 50.9597 60.9872 49.412 59.896C44.4596 56.4047 38.5545 60.1605 38.4954 60.1985L38.2556 60.3542L38.264 60.0687C38.27 59.8653 38.8631 39.6469 38.8631 33.141C38.8631 26.4193 43.2535 21.5116 44.5991 20.1676C45.9198 18.8482 47.0311 18.8774 48.4379 18.9139C48.6803 18.9201 48.933 18.9268 49.1988 18.9268C51.0372 18.9268 52.8245 20.691 52.8997 20.7661L52.9356 20.802L52.9423 20.8523L58.0436 59.2183L58.0045 59.2677C57.9809 59.2978 56.3057 61.3697 53.5388 61.3697Z" fill="#CCCCCC"/>
<path d="M56.436 12.8374C58.3852 9.2757 57.0747 4.80997 53.509 2.86294C49.9432 0.91592 45.4724 2.2249 43.5232 5.78664C41.5739 9.34838 42.8844 13.8141 46.4502 15.7611C50.016 17.7082 54.4867 16.3992 56.436 12.8374Z" fill="#A0616A"/>
<path d="M61.2437 67.5129C60.8956 67.2434 60.6108 66.901 60.4095 66.5097C60.2082 66.1184 60.0953 65.6878 60.0786 65.2482C60.0619 64.8086 60.142 64.3707 60.3131 63.9653C60.4842 63.5599 60.7422 63.197 61.0689 62.902L56.8903 53.0567L62.3616 54.0625L65.4909 63.2576C65.9506 63.8387 66.181 64.5681 66.1383 65.3075C66.0957 66.0469 65.783 66.745 65.2595 67.2695C64.7359 67.7941 64.038 68.1085 63.2979 68.1534C62.5577 68.1982 61.8268 67.9703 61.2437 67.5129Z" fill="#A0616A"/>
<path d="M60.06 61.9086L52.5096 46.5232L49.1989 34.9435L49.2015 24.884C49.2089 24.8442 49.9872 20.9312 52.872 21.2018C55.4878 21.4549 56.8966 22.7325 57.5828 25.474C58.1656 27.8028 57.3685 34.7117 57.2913 35.3637C57.7974 36.5624 65.3911 54.635 64.1339 56.8112C64.0869 56.896 64.0183 56.967 63.9352 57.0169L65.2807 59.8545L60.06 61.9086Z" fill="#CCCCCC"/>
<path d="M49.0388 12.081C49.9208 12.1957 50.5862 11.2942 50.8948 10.4609C51.2034 9.62764 51.4385 8.65751 52.2054 8.20738C53.2531 7.59241 54.5936 8.33206 55.7917 8.12916C57.1448 7.90002 58.0246 6.46767 58.0935 5.09859C58.1624 3.7295 57.617 2.41273 57.0818 1.15045L56.895 2.71918C56.92 2.1875 56.8079 1.65831 56.5697 1.18222C56.3314 0.706139 55.9748 0.299086 55.534 0L55.7748 2.30187C55.7236 1.98429 55.61 1.67995 55.4407 1.40631C55.2714 1.13267 55.0497 0.895113 54.7883 0.707284C54.5268 0.519455 54.2308 0.385048 53.9172 0.311775C53.6037 0.238502 53.2787 0.227806 52.961 0.280302L52.9989 1.65184C51.4361 1.46622 49.8597 1.28034 48.2923 1.42176C46.7249 1.56317 45.1465 2.05853 43.9585 3.08962C42.1815 4.63197 41.5325 7.17165 41.7504 9.51304C41.9683 11.8544 42.9359 14.054 43.9444 16.1788C44.1981 16.7134 44.5491 17.3167 45.1374 17.3848C45.6661 17.446 46.1498 17.0045 46.3142 16.4989C46.4408 15.9801 46.4359 15.438 46.2999 14.9216C46.1512 14.1324 45.9638 13.3257 46.1036 12.5349C46.2434 11.7441 46.8129 10.9626 47.611 10.8657C48.4091 10.7688 49.2257 11.68 48.842 12.3857L49.0388 12.081Z" fill="#2F2E41"/>
<path d="M231.167 66.5327C230.921 66.2531 230.74 65.9231 230.636 65.566C230.532 65.2088 230.507 64.8333 230.564 64.4657C230.621 64.0981 230.758 63.7474 230.966 63.4384C231.173 63.1294 231.446 62.8696 231.764 62.6772L229.881 53.8334L234.261 55.5474L235.378 63.6829C235.666 64.2392 235.739 64.8816 235.585 65.4886C235.43 66.0955 235.058 66.6248 234.539 66.976C234.02 67.3273 233.39 67.4762 232.769 67.3945C232.147 67.3128 231.577 67.0062 231.167 66.5327Z" fill="#FFB8B8"/>
<path d="M230.669 59.6323L230.646 59.5454C228.278 50.7982 225.831 41.756 222.843 31.9106L222.823 31.8461L222.889 31.8077C224.555 30.8369 227.058 30.9016 228.712 31.9579C229.461 32.4396 230.043 33.1394 230.38 33.9627C230.717 34.786 230.793 35.6929 230.597 36.5607L232.777 47.9105C233.663 51.6206 234.58 55.4608 235.456 59.2474L235.481 59.3547L235.345 59.3634C233.749 59.4648 232.101 59.5696 230.78 59.6275L230.669 59.6323Z" fill="#CCCCCC"/>
<path d="M210.548 106.71H207.443L205.965 94.7457H210.548V106.71Z" fill="#FFB8B8"/>
<path d="M211.34 109.717H201.327V109.591C201.328 108.559 201.739 107.569 202.47 106.839C203.201 106.109 204.191 105.699 205.225 105.698H211.34L211.34 109.717Z" fill="#2F2E41"/>
<path d="M239.812 104.152L236.853 105.093L231.808 94.1415L236.175 92.7514L239.812 104.152Z" fill="#FFB8B8"/>
<path d="M231.939 109.813L231.901 109.692C231.588 108.709 231.679 107.641 232.154 106.724C232.628 105.807 233.447 105.115 234.431 104.801L240.258 102.946L241.48 106.776L231.939 109.813Z" fill="#2F2E41"/>
<path d="M224.093 23.8947C227.529 23.8947 230.315 21.1124 230.315 17.6802C230.315 14.2481 227.529 11.4658 224.093 11.4658C220.657 11.4658 217.872 14.2481 217.872 17.6802C217.872 21.1124 220.657 23.8947 224.093 23.8947Z" fill="#FFB8B8"/>
<path d="M226.887 16.5285C226.922 14.022 225.872 11.5396 224.248 10.2915C223.483 9.68589 222.531 9.36426 221.555 9.38149C220.578 9.39872 219.639 9.75374 218.895 10.386C217.297 11.6909 216.296 14.2095 216.38 16.7139C219.962 16.7241 223.544 16.7343 226.887 16.5285Z" fill="#2F2E41"/>
<path d="M212.321 102.859L212.197 102.847C209.495 102.582 206.701 102.309 204.061 102.277L203.917 102.275L203.937 102.133C204.563 97.6079 204.828 92.9032 205.084 88.3533C205.337 83.8607 205.599 79.2152 206.209 74.8032C206.467 73.6217 206.719 72.4543 206.969 71.2911C209.043 61.6654 211.001 52.5735 215.044 43.5735L215.082 43.4885L215.175 43.4997C218.968 43.9581 222.612 45.3405 225.437 47.392L225.492 47.4316L225.489 47.4992C225.435 48.8971 225.379 50.3422 225.462 51.6586C226.744 53.4381 227.594 55.4914 227.943 57.6559C228.293 59.8203 228.133 62.0363 227.477 64.1283C228.589 67.8415 229.739 71.6798 230.912 75.4661C233.762 83.2689 236.71 91.3436 239.733 99.5287L239.782 99.6629L239.643 99.6955C237.468 100.206 235.225 100.731 233.012 100.935L232.928 100.943L232.889 100.869C227.245 90.3789 222.656 79.3561 219.188 67.9622C218.432 70.2627 217.344 72.3393 216.29 74.3507C215.282 76.1802 214.396 78.0736 213.635 80.0189C213.169 83.8449 213.045 87.9901 212.926 91.9986C212.812 95.7888 212.706 99.3686 212.335 102.735L212.321 102.859Z" fill="#2F2E41"/>
<path d="M221.969 10.4065C224.666 9.82609 227.649 10.3782 229.767 12.1957C231.885 14.0131 232.96 17.1572 232.09 19.8536C231.22 22.5501 228.266 24.4473 225.595 23.751C226.36 21.5972 225.499 18.9528 223.629 17.7122C221.411 16.2409 220.801 12.7284 221.969 10.4065Z" fill="#2F2E41"/>
<path d="M225.243 47.6622L225.145 47.6173C221.705 46.0495 218.331 44.8466 215.171 43.749L215.074 43.7281L215.073 43.4474L215.136 43.4693C215.15 43.4401 215.165 43.407 215.179 43.374C215.223 43.2786 215.252 43.2137 215.277 43.1707L215.276 43.1703C215.54 42.634 215.749 42.1157 215.952 41.6145C216.161 41.0972 216.377 40.5631 216.656 39.998C215.98 39.3211 215.517 38.4613 215.325 37.5249C215.132 36.5884 215.218 35.6161 215.572 34.7279C216.271 33.075 218.051 31.7877 219.921 31.5741C220.607 29.6894 222.134 25.7292 222.134 25.7292C222.134 25.7292 225.345 25.6411 226.637 25.4774L226.659 25.4747L226.68 25.4794C229.499 26.0965 231.853 28.7615 232.404 31.9603C232.869 34.66 232.163 37.748 230.416 40.6555C229.52 42.0774 228.529 43.4374 227.45 44.7264C226.663 45.709 225.92 46.6371 225.303 47.5719L225.243 47.6622Z" fill="#CCCCCC"/>
<path d="M231.471 14.0891C229.583 13.8076 228.101 11.8801 228.315 9.98567C228.53 8.09122 230.406 6.5432 232.309 6.69015C234.212 6.83709 235.827 8.6547 235.748 10.5596C235.668 12.4645 233.881 14.4485 231.471 14.0891Z" fill="#2F2E41"/>
<path d="M231.176 12.8607C229.288 12.5792 227.806 10.6517 228.021 8.75726C228.114 8.1129 228.37 7.50269 228.763 6.98352C229.156 6.46436 229.675 6.05314 230.27 5.78821C228.748 6.12104 227.438 7.44613 227.261 9.01028C227.046 10.9047 228.528 12.8322 230.416 13.1137C231.119 13.224 231.84 13.1233 232.486 12.8245C232.055 12.9149 231.611 12.9272 231.176 12.8607Z" fill="#2F2E41"/>
<path d="M194.558 46.2539C194.74 45.9295 194.991 45.6489 195.294 45.4319C195.596 45.2148 195.943 45.0667 196.308 44.9979C196.674 44.929 197.051 44.9412 197.412 45.0335C197.773 45.1258 198.109 45.2959 198.396 45.532L206.117 40.8119L205.958 45.5077L198.651 49.2701C198.222 49.7268 197.64 50.0103 197.016 50.067C196.391 50.1238 195.768 49.9498 195.263 49.578C194.759 49.2062 194.408 48.6625 194.278 48.0498C194.148 47.4372 194.248 46.7982 194.558 46.2539Z" fill="#FFB8B8"/>
<path d="M200.906 43.4864L200.98 43.4353C208.448 38.2911 216.168 32.9734 224.466 26.879L224.52 26.8391L224.578 26.8883C226.049 28.1334 226.822 30.5124 226.376 32.422C226.171 33.2876 225.705 34.0693 225.04 34.6613C224.375 35.2532 223.544 35.6268 222.66 35.7314L212.673 41.5654C209.466 43.636 206.146 45.7791 202.864 47.8661L202.771 47.9252L202.718 47.8003C202.09 46.3313 201.442 44.8136 200.947 43.589L200.906 43.4864Z" fill="#CCCCCC"/>
<path d="M96.7637 110H0.253308C0.186127 110 0.121697 109.973 0.074192 109.926C0.0266876 109.878 0 109.814 0 109.747C0 109.68 0.0266876 109.616 0.074192 109.568C0.121697 109.521 0.186127 109.494 0.253308 109.494H96.7637C96.8309 109.494 96.8953 109.521 96.9428 109.568C96.9903 109.616 97.017 109.68 97.017 109.747C97.017 109.814 96.9903 109.878 96.9428 109.926C96.8953 109.973 96.8309 110 96.7637 110Z" fill="#3F3D56"/>
<path d="M267.747 110H171.236C171.169 110 171.105 109.973 171.057 109.926C171.01 109.878 170.983 109.814 170.983 109.747C170.983 109.68 171.01 109.616 171.057 109.568C171.105 109.521 171.169 109.494 171.236 109.494H267.747C267.814 109.494 267.878 109.521 267.926 109.568C267.973 109.616 268 109.68 268 109.747C268 109.814 267.973 109.878 267.926 109.926C267.878 109.973 267.814 110 267.747 110Z" fill="#3F3D56"/>
</g>
<defs>
<clipPath id="clip0_33_5397">
<rect width="268" height="110" fill="white"/>
</clipPath>
</defs>
</svg>
