<?xml version="1.0" encoding="utf-8"?>
<svg version="1.1"
	 id="svg2" xmlns:inkscape="http://www.inkscape.org/namespaces/inkscape" xmlns:cc="http://creativecommons.org/ns#" xmlns:dc="http://purl.org/dc/elements/1.1/" xmlns:rdf="http://www.w3.org/1999/02/22-rdf-syntax-ns#" xmlns:ns1="http://sozi.baierouge.fr" xmlns:svg="http://www.w3.org/2000/svg" xmlns:sodipodi="http://sodipodi.sourceforge.net/DTD/sodipodi-0.dtd"
	 xmlns="http://www.w3.org/2000/svg" xmlns:xlink="http://www.w3.org/1999/xlink" x="0px" y="0px" viewBox="0 0 265.3 264"
	 style="enable-background:new 0 0 265.3 264;" xml:space="preserve">
<sodipodi:namedview  bordercolor="#666666" borderopacity="1.0" id="base" inkscape:current-layer="layer1" inkscape:cx="410.91208" inkscape:cy="193.45135" inkscape:document-units="px" inkscape:pageopacity="0.0" inkscape:pageshadow="2" inkscape:window-height="819" inkscape:window-maximized="1" inkscape:window-width="1440" inkscape:window-x="0" inkscape:window-y="25" inkscape:zoom="0.98994949" pagecolor="#ffffff" showgrid="false">
	</sodipodi:namedview>
<g id="layer1" transform="translate(-21.811 -110.29)" inkscape:groupmode="layer" inkscape:label="Ebene 1">
	<path id="path2830" d="M157.1,110.3c-1.1,0.3,4,4.7,14.8,12.6c20.6,15.1,38.1,31.1,49.7,45.4c3.9,4.7,7.5,9.6,10.8,14.8
		c1.5,2.6,3.2,5.4,3.7,6.2c0.9,1.5,6.7,13.8,8.2,17.5c0.5,1.1,1.8,6,3,11c3.9,16.2,2.3,46.1-3,59c-5.1,12.3-11.2,22.5-13.3,22.5
		c-0.5,0-4.6-3.5-9.1-7.8c-13.4-12.9-25.8-24.5-32.6-30.8c-3.5-3.2-9.2-8.6-12.7-11.9c-8.5-8.1-14-13.4-33.9-32
		c-9.4-8.8-17.2-16.6-17.3-17.3c-0.2-0.8,6.9-8.5,15.7-17.2c8.9-8.7,16.1-16.2,16.1-16.8c0-0.5-1.7-1.3-3.8-1.6
		c-2.1-0.4-7.8-1.3-12.8-2.2s-11.8-2.2-15.2-2.9c-3.4-0.8-7-1.4-8-1.4c-1.7,0-59.3,56.1-59.3,57.8c0,0.4,5.6,6.3,12.4,13.1L83,240.6
		l13-13.1c7.2-7.2,13.5-13.2,14-13.2c0.8,0,25.4,25,60.3,61.4c5.7,6,16.6,17.2,24.2,25c10.4,10.7,13.4,14.4,12.5,15.2
		c-0.7,0.6-4.1,1.9-7.7,3c-8.9,2.6-38,2.7-48.5,0.1c-20.9-5.2-35.3-10.6-55.3-20.9c-5.1-2.6-9.9-4.8-10.5-4.8c-0.6,0-3.4,2.7-6,6
		c-4.3,5.4-5.1,5.9-7.7,5.4c-4.2-0.8-7.7,0.3-9.6,3.1c-1.3,2-1.4,3.3-0.6,7.2c1.3,6,0.6,7.2-6.1,11.4c-2.9,1.8-7.5,4.7-10.3,6.5
		c-20,12.9-28.9,32.3-18.3,39.9c2.6,1.9,8.7,1.6,12.9-0.7c10.5-5.6,16.7-12.7,23.7-26.8c7.2-14.8,8.4-16,14.3-16
		c6.9,0,9.3-2.9,8.8-10.6c-0.3-4.6,0-5.9,1.2-6.1c0.9-0.2,5.1,2.5,9.5,6c45.1,35.9,98.8,47.4,137.3,29.5l4.4-2l13.7,14.2
		c10.2,10.6,14.3,14.2,16.1,14.2c6.9,0,18.9-12,18.9-19c0-1.9-4.3-6.4-20.5-21.5c-5.2-4.8-5.8-5.7-4.4-6.8
		c5.4-4.4,15.8-22.1,18.9-32.3c0.7-2.2,1.7-5.1,2.2-6.5c1.8-4.5,3.7-21.3,3.8-32.1c-1.1-26.3-6.2-51.8-22.1-73.6
		c-8.9-12.1-18.6-23.5-30.4-33.1c-17.5-14.3-51.2-31.9-71-37.2c-1.6-0.4-3.8-1.1-4.8-1.5C158,110.4,157.4,110.2,157.1,110.3
		L157.1,110.3z"/>
</g>
</svg>
