<svg width="349" height="279" viewBox="0 0 349 279" fill="none" xmlns="http://www.w3.org/2000/svg">
<g clip-path="url(#clip0_33_5332)">
<path d="M233.191 61.1124C233.139 61.1212 233.063 61.1342 232.97 61.1496C231.154 61.4512 220.174 63.1506 209.104 58.9204C204.414 57.1284 206.014 56.6818 195.569 50.4515C183.324 43.1472 180.181 43.1983 179.27 39.7924C177.449 32.9915 187.171 22.3003 193.607 23.0042C195.301 23.1895 197.116 24.2028 199.938 23.5157C200.558 23.3648 203.272 22.704 204.595 20.4502C205.776 18.4397 204.776 16.9894 205.251 15.3405C206.497 11.0123 216.884 8.85226 225.991 10.3784C231.228 11.2562 235.302 13.6526 243.237 18.4097C257.046 26.6894 263.951 30.8293 265.503 37.172C266.974 43.1838 263.443 45.7742 266.011 52.2096C268.401 58.2017 272.199 57.8015 273.505 62.6489C275.608 70.4493 267.804 79.0103 264.553 82.5765C260.988 86.4865 257.58 88.6324 253.054 91.4812C247.374 95.057 244.534 96.8449 241.119 96.663C234.929 96.3332 216.533 97.4559 216.293 92.3168C216.203 90.3909 193.892 91.9678 204.878 71.2328C206.225 68.6896 232.623 71.4062 232.971 69.9451" fill="#2F2E41"/>
<path d="M243.875 74.3809L262.85 102.773L208.382 113.822L211.851 78.2766L243.875 74.3809Z" fill="#FFB6B6"/>
<path opacity="0.1" d="M243.875 74.3809L262.85 102.773L208.382 113.822L211.851 78.2766L243.875 74.3809Z" fill="black"/>
<path d="M204.302 95.4067L263.049 92.9513L289.159 107.275L287.935 199.353L315.268 251.326L177.377 225.135L187.984 185.848L183.088 103.182L204.302 95.4067Z" fill="#FADA5E"/>
<path d="M1.58211 274.286C-0.293417 271.32 -0.514913 267.656 0.989728 264.484L23.3489 217.358C25.0176 213.841 28.605 211.568 32.4879 211.568H314.902C318.677 211.568 322.111 213.651 323.865 217.005L347.831 262.832C349.487 266 349.378 269.721 347.539 272.785C345.7 275.85 342.473 277.688 338.908 277.702L10.1685 279H10.1274C6.64242 279 3.45003 277.24 1.58211 274.286Z" fill="white"/>
<path d="M1.58211 274.286C-0.293417 271.32 -0.514913 267.656 0.989728 264.484L23.3489 217.358C25.0176 213.841 28.605 211.568 32.4879 211.568H314.902C318.677 211.568 322.111 213.651 323.865 217.005L347.831 262.832C349.487 266 349.378 269.721 347.539 272.785C345.7 275.85 342.473 277.688 338.908 277.702L10.1685 279H10.1274C6.64242 279 3.45003 277.24 1.58211 274.286ZM32.4879 212.634C29.0125 212.634 25.8018 214.668 24.3082 217.816L1.94902 264.942C0.602245 267.781 0.800396 271.06 2.47916 273.715C4.15117 276.359 7.00812 277.934 10.1275 277.934H10.1644L338.904 276.636C342.095 276.624 344.983 274.978 346.629 272.236C348.275 269.493 348.372 266.162 346.89 263.328L322.924 217.5C321.354 214.499 318.281 212.634 314.902 212.634H32.4879Z" fill="#3F3D56"/>
<path d="M288.609 260.984L172.064 252.946C170.343 252.828 168.971 251.664 168.568 249.982C168.165 248.3 168.86 246.638 170.339 245.748L196.11 230.236C196.765 229.842 197.515 229.651 198.276 229.687L299.086 234.284C300.419 234.345 301.61 235.075 302.271 236.237C302.932 237.399 302.953 238.799 302.327 239.981L292.29 258.933C291.616 260.205 290.296 260.993 288.874 260.993C288.786 260.993 288.697 260.99 288.609 260.984Z" fill="#3F3D56"/>
<path d="M171.053 248.257L287.119 256.237L296.298 236.389L196.777 232.474L171.053 248.257Z" fill="white"/>
<path d="M228.168 83.9448C247.431 83.9448 263.046 68.2808 263.046 48.9583C263.046 29.6358 247.431 13.9717 228.168 13.9717C208.906 13.9717 193.291 29.6358 193.291 48.9583C193.291 68.2808 208.906 83.9448 228.168 83.9448Z" fill="#FFB6B6"/>
<path d="M239.402 51.2223C239.351 51.2311 239.274 51.2441 239.182 51.2595C237.366 51.5611 226.385 53.2604 215.315 49.0303C210.626 47.2383 212.225 46.7916 201.781 40.5614C189.536 33.2571 186.393 33.3082 185.481 29.9023C183.66 23.1014 193.383 12.4102 199.818 13.1141C201.513 13.2994 203.327 14.3127 206.149 13.6256C206.769 13.4747 209.484 12.8139 210.807 10.5601C211.987 8.5496 210.988 7.09927 211.462 5.45035C212.708 1.12215 223.095 -1.03785 232.202 0.488308C237.44 1.3661 241.514 3.76252 249.448 8.51955C263.258 16.7993 270.162 20.9392 271.714 27.2819C273.185 33.2937 269.655 35.8841 272.222 42.3195C274.613 48.3116 278.41 47.9114 279.717 52.7588C281.819 60.5592 274.015 69.1201 270.764 72.6864C267.2 76.5963 263.791 78.7423 259.266 81.5911C253.586 85.1669 250.746 86.9548 247.331 86.7729C241.14 86.4431 234.983 80.8152 234.743 75.6762C234.653 73.7502 235.454 73.1726 237.436 66.5517C238.262 63.7932 238.835 61.5161 239.183 60.055" fill="#2F2E41"/>
<path d="M263.307 238.672C265.551 238.761 267.259 240.777 267.382 242.962C267.511 245.23 265.939 247.319 264.05 248.399C261.838 249.664 259.077 249.867 256.586 249.649C254.345 249.454 251.907 248.754 250.465 246.898C249.252 245.337 248.806 242.977 249.838 241.205C250.861 239.447 253.036 238.962 254.856 239.667C256.782 240.413 257.993 242.171 258.005 244.247C258.019 246.549 256.694 248.675 254.834 249.948C252.829 251.321 250.304 251.762 247.917 251.756C245.316 251.75 242.726 251.203 240.333 250.186C238.091 249.233 235.851 247.859 234.248 245.992C232.745 244.242 231.845 241.813 232.679 239.543C233.364 237.682 235.092 236.54 237.072 236.698C238.884 236.842 240.718 237.897 241.522 239.577C242.43 241.473 242.022 243.747 240.867 245.441C239.533 247.398 237.425 248.497 235.084 248.656C232.592 248.825 230.125 247.937 228.075 246.564C226.177 245.293 224.509 243.665 222.472 242.608C221.491 242.099 220.424 241.775 219.314 241.777C217.9 241.778 216.541 242.244 215.166 242.514C214.001 242.743 212.8 242.877 211.65 242.503C210.666 242.184 209.745 241.598 209.125 240.758C208.539 239.963 208.333 238.967 208.665 238.023C208.925 237.284 210.108 237.602 209.845 238.35C209.238 240.075 211.321 241.343 212.78 241.501C213.886 241.622 215.028 241.301 216.095 241.05C217.208 240.789 218.345 240.522 219.496 240.551C223.571 240.651 226.265 244.146 229.55 246.042C233.005 248.035 238.064 248.174 240.179 244.213C240.947 242.774 241.106 240.862 240.051 239.518C239.171 238.398 237.609 237.728 236.193 237.945C234.415 238.218 233.53 239.917 233.594 241.605C233.674 243.672 235.11 245.351 236.641 246.589C240.05 249.345 244.571 250.748 248.932 250.502C250.978 250.387 253.152 249.852 254.742 248.486C256.115 247.305 257.052 245.385 256.722 243.546C256.437 241.954 255.106 240.747 253.498 240.587C251.853 240.423 250.568 241.594 250.494 243.243C250.412 245.096 251.51 246.644 253.101 247.488C254.903 248.444 257.087 248.563 259.085 248.459C261.205 248.348 263.415 247.787 264.899 246.167C266.165 244.786 266.644 242.736 265.478 241.137C264.963 240.431 264.189 239.934 263.307 239.899C262.522 239.868 262.518 238.64 263.307 238.672Z" fill="#FADA5E"/>
<path d="M207.527 237.356L208.151 233.486L242.777 167.1C243.35 166 244.709 165.574 245.805 166.149C246.901 166.724 247.326 168.087 246.753 169.187L212.143 235.544L209.313 238.294C208.979 238.617 208.496 238.687 208.084 238.471C207.672 238.255 207.454 237.817 207.527 237.356Z" fill="#3F3D56"/>
<path d="M231.129 195.12C235.036 195.858 238.709 197.523 241.843 199.977L242.019 200.015L242.054 199.839L279.792 205.769L277.058 155.418L305.658 139.704L298.898 224.814C297.434 230.25 291.811 233.424 286.419 231.859L238.381 217.998L238.501 217.405L238.333 217.36C234.494 218.399 230.463 218.5 226.577 217.655C216.828 215.676 209.943 209.025 211.2 202.802C212.456 196.578 221.377 193.139 231.129 195.12Z" fill="#FFB6B6"/>
<path d="M256.93 116.278L289.159 107.275C289.159 107.275 306.089 119.756 308.129 133.261C308.372 134.867 309.045 209.685 308.333 211.63C303.061 226.043 274.064 203.036 274.064 203.036L256.93 116.278Z" fill="#FADA5E"/>
<path d="M117.135 250.749L113.794 247.876C113.297 247.448 112.692 247.165 112.045 247.056L37.5986 234.61C35.8994 234.326 34.6443 233.095 34.3228 231.397C34.0015 229.699 34.7194 228.092 36.1966 227.203L62.7557 211.218C63.6433 210.684 64.6879 210.516 65.6985 210.745L160.09 232.137C161.925 232.552 163.15 234.04 163.21 235.926C163.27 237.813 162.143 239.376 160.338 239.908L120.871 251.552C120.497 251.663 120.115 251.717 119.736 251.717C118.794 251.717 117.872 251.383 117.135 250.749Z" fill="#3F3D56"/>
<path d="M81.2836 157.918C84.9738 159.4 88.2563 161.747 90.8567 164.763L91.0223 164.835L91.0913 164.669L126.97 177.815L165.279 115.593L186.457 128.76L142.039 200.211C139.554 205.259 133.424 207.281 128.437 204.699L83.9829 181.771L84.215 181.213L84.059 181.135C80.092 181.409 76.1174 180.725 72.468 179.142C63.2854 175.307 57.8146 167.445 60.2486 161.584C62.6825 155.722 72.0982 154.08 81.2836 157.918Z" fill="#FFB6B6"/>
<path d="M206.375 126.826L189.43 101.409C189.43 101.409 169.267 105.412 160.961 116.236C159.923 117.588 124.259 169.473 124.03 171.737C122.421 187.587 163.41 195.014 163.41 195.014L206.375 126.826Z" fill="#FADA5E"/>
<path d="M115.291 251.512L29.9529 239.681C27.0968 239.285 24.7394 237.232 23.947 234.451L4.34708 165.637C3.68295 163.304 4.17876 160.889 5.70742 159.01C7.23609 157.131 9.49462 156.16 11.9063 156.344L97.8847 162.952C100.995 163.191 103.606 165.388 104.383 168.419L123.342 242.458C123.947 244.82 123.342 247.318 121.724 249.138C120.33 250.706 118.353 251.582 116.293 251.582C115.961 251.582 115.626 251.559 115.291 251.512Z" fill="#3F3D56"/>
<path d="M96.2693 110.562C96.7681 111.112 98.5782 110.552 102.178 109.408C104.915 108.538 105.336 108.222 105.597 107.995C106.512 107.197 106.751 106.358 107.658 102.653C109.285 96.0031 109.335 95.3427 110.171 93.9315C110.458 93.4455 111.185 92.2863 111.008 92.1427C110.826 91.995 110.039 93.2026 108.586 93.6589C107.169 94.1036 106.531 93.3912 105.322 93.5726C103.759 93.8072 102.829 95.2968 101.371 97.7079C100.08 99.8432 99.9176 100.702 98.1074 104.945C97.5945 106.147 97.1816 107.077 96.8646 107.812C93.3104 111.139 89.7855 114.511 86.2925 117.912C86.3598 117.808 86.4232 117.711 86.4782 117.626C88.0253 115.243 88.2356 113.966 88.2132 113.008C88.1768 111.458 87.4384 110.276 85.9631 107.977C84.5174 105.724 83.1476 104.237 81.4972 102.463C79.3338 100.138 78.2522 98.9748 77.8214 99.0513C74.7446 99.5975 73.9218 120.613 77.793 124.371C77.2497 124.761 76.7997 125.169 76.4743 125.57C73.1605 121.879 67.4838 117.756 61.1952 117.248C57.3184 116.935 55.1787 118.155 54.5133 118.575C51.4383 120.512 49.6098 124.39 50.5281 125.484C51.3844 126.504 53.8575 124.185 58.7044 124.312C62.0864 124.402 64.7282 125.632 66.2966 126.363C69.5867 127.896 70.7901 129.403 73.2159 130.435C72.0787 131.375 71.1778 132.548 70.612 133.643C70.416 133.845 70.2208 134.049 70.025 134.252C67.522 132.837 64.7034 131.799 61.749 131.56C57.8721 131.247 55.7323 132.468 55.067 132.887C52.9945 134.193 51.4927 136.378 51.012 138C50.6978 138.063 50.4071 138.136 50.141 138.214C49.2014 136.084 46.4056 133.838 43.8059 132.706C39.331 130.757 33.5181 131.274 32.8961 133.127C32.8763 133.186 32.8713 133.244 32.8625 133.302C33.353 129.332 34.0191 125.39 34.8512 121.476C34.8794 121.587 34.9149 121.7 34.9621 121.819C36.0668 124.603 39.0518 127.274 43.1206 128.66C46.3141 129.748 47.6518 129.184 47.9915 129.026C48.3161 128.876 49.7181 128.272 50.0616 127.072C50.6984 124.847 46.7984 118.27 44.3384 120.476C36.4344 127.563 35.3497 121.824 34.9867 120.858C35.6587 117.764 36.4322 114.687 37.2997 111.629C37.3146 111.647 37.3276 111.666 37.3431 111.684C39.07 113.785 42.3933 115.265 46.2986 115.331C49.3637 115.382 50.3652 114.521 50.6157 114.29C50.8548 114.07 51.901 113.157 51.8659 112.022C51.8007 109.919 48.0704 108.205 45.0858 107.908C42.3354 107.635 39.3738 108.479 37.9047 109.549C38.5877 107.258 39.3225 104.977 40.1062 102.706C42.1135 103.529 44.9568 103.418 47.75 102.166C50.0534 101.133 50.5013 100.141 50.6078 99.8814C50.7095 99.6333 51.1725 98.5868 50.7523 97.753C49.9733 96.2073 46.5967 96.2335 44.2679 97.055C43.3088 97.3933 42.3973 97.9139 41.616 98.5023C43.0049 94.7802 44.5189 91.0845 46.1472 87.4162L44.5154 87.007C42.4353 91.6931 40.6218 96.4403 39.0632 101.24C38.8694 99.8324 38.3838 98.3328 37.7443 97.1144C35.8641 93.5321 31.848 90.8444 30.4898 91.7164C30.2181 91.8909 30.1038 92.1749 30.0004 92.5131C29.1678 95.2346 29.7948 98.9957 31.9874 102.451C33.7082 105.163 35.0336 105.544 35.3788 105.63C35.6703 105.703 36.7957 106.015 37.7207 105.613C37.0986 107.751 36.5234 109.899 35.9989 112.056C35.3678 110.484 34.124 108.809 32.8085 107.651C29.7752 104.98 25.0664 103.912 24.109 105.213C23.9176 105.474 23.9121 105.78 23.9361 106.133C24.1292 108.973 26.0558 112.26 29.3355 114.7C31.9096 116.616 33.283 116.495 33.6361 116.452C33.844 116.426 34.4721 116.364 35.0776 116.089C34.5155 118.71 34.0242 121.344 33.5995 123.989C32.7501 121.03 29.8647 117.339 27.1417 118.513C22.3096 120.597 16.6295 117.396 16.0043 118.796C15.8416 119.16 15.9763 119.535 16.132 119.943C17.3838 123.222 20.8414 126.399 25.5888 128.086C29.3148 129.41 30.8912 128.77 31.2918 128.591C31.5574 128.472 32.4335 128.105 33.0862 127.423C32.617 130.822 32.2573 134.238 32.0041 137.668C30.9966 135.462 28.1589 133.137 25.5024 131.938C20.8425 129.836 14.7477 130.296 14.0708 132.229C13.9355 132.615 14.0422 132.988 14.2019 133.406C15.4869 136.772 19.0356 140.032 23.9084 141.764C27.7329 143.123 29.3508 142.466 29.7621 142.282C30.0625 142.148 31.1235 141.703 31.8001 140.859C31.7134 142.445 31.6465 144.033 31.6042 145.625C31.5921 146.078 31.585 146.532 31.5763 146.985C31.5214 147.074 31.4735 147.165 31.4416 147.26C31.311 147.649 31.3999 148.023 31.5532 148.432C31.5498 148.72 31.548 149.008 31.5461 149.296C30.6935 148.52 29.6765 147.355 28.4532 145.694C27.3494 144.195 26.3012 145.295 25.628 146.571C24.5724 146.335 23.5655 146.481 22.7737 147.223C17.4637 152.199 11.508 149.559 11.4238 151.042C11.3994 151.471 11.628 151.811 11.9162 152.18C14.2347 155.151 18.7862 157.319 24.1935 157.547C28.4374 157.726 29.8548 156.57 30.2098 156.258C30.3345 156.149 30.6139 155.913 30.9166 155.581C31.1597 155.776 31.3962 155.952 31.6335 156.114C31.7268 158.962 31.8938 161.807 32.1414 164.647C31.9401 164.665 31.7476 164.698 31.6042 164.713C29.5485 164.923 28.8559 162.141 25.7506 161.124C24.7193 160.787 22.7326 160.419 21.6856 161.124C21.5348 161.226 21.0203 161.608 20.2221 161.94C19.7503 162.136 19.3899 162.227 19.2466 162.266C17.9725 162.616 16.7924 163.575 15.9946 164.223C14.4948 165.443 13.745 166.052 13.393 167.159C13.2822 167.508 12.9705 168.488 13.393 169.443C13.5926 169.894 14.0558 170.565 15.832 171.237C16.8876 171.637 19.9667 172.801 23.6367 171.563C24.4725 171.281 23.8345 171.382 27.0513 169.769C29.5822 168.5 31.0623 167.893 31.279 166.67C31.3552 166.24 31.2784 165.716 31.6042 165.528C31.7852 165.424 32.0042 165.475 32.2227 165.554C32.4356 167.837 32.7016 170.116 33.0239 172.391H30.1279C26.2825 172.391 22.8328 174.538 21.1252 177.994L10.2928 199.916C9.60899 201.3 9.24744 202.847 9.24744 204.392V260.762C9.24744 266.32 13.755 270.841 19.2956 270.841H44.5799C50.1205 270.841 54.628 266.32 54.628 260.762V208.856C54.628 207.591 54.3943 206.352 53.9334 205.174L43.6096 178.788C42.3574 175.588 39.6455 173.324 36.4037 172.623C37.4435 171.387 38.485 170.152 39.5345 168.92C40.856 169.56 42.3098 170.085 43.8728 170.453C48.0078 171.428 49.6165 170.559 50.0235 170.32C50.4121 170.092 52.0967 169.165 52.3823 167.618C52.4129 167.452 52.4247 167.285 52.4225 167.116C56.6581 170.57 58.8676 172.272 60.4819 171.705C61.8697 171.217 62.662 169.617 63.1157 168.182C63.5895 168.248 64.092 168.316 64.6275 168.387C70.4286 169.164 73.3518 169.525 74.47 168.147C76.0176 166.239 74.5487 162.561 74.1439 161.547C73.2639 159.344 71.9102 158.003 71.0693 157.188C69.9774 156.129 66.8652 153.11 61.9655 152.707C60.9004 152.62 59.9435 152.687 58.9688 152.892C58.6291 152.58 58.2707 152.275 57.8759 151.985C57.1239 151.432 56.3811 151.023 55.5817 150.703C56.808 149.355 58.0377 148.012 59.2731 146.674C59.4687 146.763 59.6544 146.849 59.825 146.929C63.8724 148.814 64.7616 150.661 68.6539 151.633C70.4198 152.074 72.419 152.573 72.9138 151.822C73.7931 150.489 70.061 145.002 64.294 141.29C64.6828 140.877 65.0727 140.465 65.4624 140.053C65.9898 140.275 66.4544 140.491 66.8503 140.676C70.8977 142.561 71.7869 144.408 75.6793 145.38C77.445 145.821 79.4442 146.32 79.9392 145.57C80.7236 144.38 77.837 139.882 73.1096 136.289C74.4082 135.876 76.1301 135.417 78.3598 135.476C81.7419 135.565 84.3837 136.796 85.9521 137.527C89.9994 139.412 90.8887 141.259 94.7809 142.231C96.5468 142.672 98.5459 143.171 99.0408 142.421C100.348 140.438 91.4702 129.269 80.8506 128.411C80.0263 128.345 79.2853 128.351 78.6155 128.4C78.523 128.246 78.4225 128.088 78.3166 127.928C81.9097 128.044 88.9268 127.013 94.8995 131.219C96.6216 132.432 99.9672 135.285 105.566 137.63C107.356 138.379 108.256 138.747 108.503 138.44C109.391 137.338 102.014 128.275 91.6359 123.81C87.5213 122.04 84.979 121.872 83.1707 122.141C83.4494 121.822 83.721 121.493 83.9825 121.163C88.0236 117.187 92.1156 113.253 96.2445 109.371C96.0446 109.991 96.0512 110.321 96.2693 110.562ZM44.4101 160.045C39.8457 158.563 34.3187 159.359 32.8774 161.046C32.6743 159.551 32.4977 158.054 32.3522 156.554C34.4316 157.719 36.6014 158.031 40.7174 158.583C42.4705 158.817 43.9566 159.013 45.2136 159.135C45.3825 159.594 45.5625 160.007 45.7715 160.402C45.7957 160.448 45.8217 160.492 45.8464 160.537L45.8099 160.579C45.3412 160.375 44.8716 160.195 44.4101 160.045ZM32.283 139.964C32.4132 139.531 32.4159 139.069 32.3165 138.594C32.4585 136.871 32.6358 135.153 32.8456 133.44C32.8402 133.702 32.9231 133.965 33.036 134.249C34.3049 137.446 37.7336 140.514 42.4072 142.106C43.279 142.403 44.0269 142.59 44.6711 142.705C44.3877 143.2 44.1705 143.683 44.0266 144.13C42.4333 142.846 40.3823 141.912 38.0553 142.903C37.422 143.172 37.0461 144.158 36.7196 145.337C34.5699 145.375 32.7735 145.825 31.9179 146.586C31.9225 146.268 31.9209 145.951 31.9294 145.633C31.9776 143.821 32.0666 142.014 32.1921 140.213C32.2264 140.133 32.2572 140.05 32.283 139.964ZM31.924 149.286C32.0166 149.477 32.1181 149.666 32.2235 149.855C32.1279 149.784 32.0299 149.708 31.9295 149.626C31.9268 149.513 31.9261 149.4 31.924 149.286ZM35.5944 172.484C35.3441 172.451 35.0916 172.427 34.8366 172.413C34.2481 169.482 33.7047 166.554 33.25 163.62C34.446 165.524 36.398 167.267 38.8845 168.589C37.7812 169.884 36.687 171.184 35.5944 172.484ZM54.8592 150.443C53.3027 149.942 51.4761 149.702 48.9482 149.407C48.3075 148.514 47.6472 147.856 47.159 147.383C46.8946 147.126 46.4887 146.618 45.9628 146.022C47.3255 145.584 49.3591 144.802 52.2328 144.878C54.8445 144.947 57.012 145.696 58.5873 146.37C57.3395 147.723 56.0979 149.081 54.8592 150.443ZM63.6809 140.906C62.1514 139.979 60.4925 139.185 58.7462 138.627C58.916 138.625 59.0821 138.62 59.2581 138.625C61.4237 138.682 63.2836 139.207 64.7546 139.77C64.3967 140.148 64.0382 140.526 63.6809 140.906Z" fill="#CCCCCC"/>
</g>
<defs>
<clipPath id="clip0_33_5332">
<rect width="349" height="279" fill="white"/>
</clipPath>
</defs>
</svg>
