<svg width="375" height="378" viewBox="0 0 375 378" fill="none" xmlns="http://www.w3.org/2000/svg">
<path d="M326.121 7.51672C326.121 7.51672 394.325 168.947 283.367 289.196C283.782 289.302 182.188 402.412 32.2931 360.687" stroke="black" stroke-opacity="0.54" stroke-width="2"/>
<path d="M28.4549 321.252C28.4549 321.252 187.899 363.864 276.135 239.608C276.146 239.398 357.105 149.947 287.218 5.41676" stroke="black" stroke-opacity="0.54" stroke-width="2"/>
<path d="M32.5999 281.255C32.5999 281.255 155.661 325.627 244.836 234.437C245.607 234.804 332.842 128.601 255.561 5.81274" stroke="black" stroke-opacity="0.54" stroke-width="2"/>
<path d="M32.4398 238.316C32.4398 238.316 137.587 295.665 223.075 205.934C223.868 204.856 295.957 107.87 215.865 6.08373" stroke="black" stroke-opacity="0.54" stroke-width="2"/>
<path d="M36.8048 190.257C36.8048 190.257 121.618 271.914 193.426 199.87C194.121 199.758 267.21 115.709 195.772 27.5141C197.167 26.6475 182.074 5.52809 182.074 5.52809" stroke="black" stroke-opacity="0.54" stroke-width="2"/>
<path d="M148.07 6.88628C148.07 6.88628 168.443 45.2419 189.274 72.3014C189.87 72.6192 221.359 151.264 168.518 188.448C169.112 188.228 129.923 224.009 81.8035 184.45C81.8372 185.11 47.2906 142.215 35.0172 134.701C34.6961 134.27 31.2027 132.697 31.2027 132.697" stroke="black" stroke-opacity="0.54" stroke-width="2"/>
<path d="M30.7667 88.5146C30.7667 88.5146 58.2239 102.958 95.7899 147.802C96.2303 147.801 124.833 184.507 155.198 150.964C155.198 150.964 175.559 119.737 148.968 86.9593C149.367 86.9374 115.451 52.4197 101.09 5.38915" stroke="black" stroke-opacity="0.54" stroke-width="2"/>
</svg>
